<mxfile host="app.diagrams.net" modified="2024-02-17T06:26:34.421Z" agent="Mozilla/5.0 (Windows NT 10.0; Win64; x64) AppleWebKit/537.36 (KHTML, like Gecko) Chrome/121.0.0.0 Safari/537.36" etag="c9F1rOqGvzOeHFBHqCau" version="23.1.5" type="device">
  <diagram name="Page-1" id="e7e014a7-5840-1c2e-5031-d8a46d1fe8dd">
    <mxGraphModel dx="1728" dy="922" grid="1" gridSize="10" guides="1" tooltips="1" connect="1" arrows="1" fold="1" page="1" pageScale="1" pageWidth="1169" pageHeight="826" background="none" math="0" shadow="0">
      <root>
        <mxCell id="0" />
        <mxCell id="1" parent="0" />
        <mxCell id="aO-ZwqscGiUsRUBuonYR-41" value="&lt;p style=&quot;margin:0px;margin-top:4px;text-align:center;&quot;&gt;&lt;br&gt;&lt;/p&gt;&lt;p style=&quot;margin:0px;margin-top:4px;text-align:center;&quot;&gt;&lt;font style=&quot;font-size: 14px;&quot;&gt;&lt;b&gt;Web Based Application&lt;/b&gt;&lt;/font&gt;&lt;/p&gt;" style="verticalAlign=top;align=left;overflow=fill;html=1;whiteSpace=wrap;" vertex="1" parent="1">
          <mxGeometry x="220" y="113" width="730" height="600" as="geometry" />
        </mxCell>
        <mxCell id="aO-ZwqscGiUsRUBuonYR-42" value="WDO in &lt;br&gt;the office" style="shape=umlActor;verticalLabelPosition=bottom;verticalAlign=top;html=1;" vertex="1" parent="1">
          <mxGeometry x="1030" y="210" width="40" height="80" as="geometry" />
        </mxCell>
        <mxCell id="aO-ZwqscGiUsRUBuonYR-45" value="Customer" style="shape=umlActor;verticalLabelPosition=bottom;verticalAlign=top;html=1;" vertex="1" parent="1">
          <mxGeometry x="120" y="373" width="40" height="80" as="geometry" />
        </mxCell>
        <mxCell id="aO-ZwqscGiUsRUBuonYR-46" value="Orders water" style="ellipse;whiteSpace=wrap;html=1;" vertex="1" parent="1">
          <mxGeometry x="290" y="433" width="140" height="70" as="geometry" />
        </mxCell>
        <mxCell id="aO-ZwqscGiUsRUBuonYR-47" value="Order is placed into mainframe (TX) as a water request" style="ellipse;whiteSpace=wrap;html=1;" vertex="1" parent="1">
          <mxGeometry x="500" y="510" width="170" height="100" as="geometry" />
        </mxCell>
        <mxCell id="aO-ZwqscGiUsRUBuonYR-48" value="WDO in &lt;br&gt;the field" style="shape=umlActor;verticalLabelPosition=bottom;verticalAlign=top;html=1;" vertex="1" parent="1">
          <mxGeometry x="1030" y="500" width="40" height="80" as="geometry" />
        </mxCell>
        <mxCell id="aO-ZwqscGiUsRUBuonYR-49" value="Schedules all the water request for the day" style="ellipse;whiteSpace=wrap;html=1;" vertex="1" parent="1">
          <mxGeometry x="740" y="190" width="140" height="70" as="geometry" />
        </mxCell>
        <mxCell id="aO-ZwqscGiUsRUBuonYR-50" value="Views and edits the schedule" style="ellipse;whiteSpace=wrap;html=1;" vertex="1" parent="1">
          <mxGeometry x="740" y="320" width="140" height="70" as="geometry" />
        </mxCell>
        <mxCell id="aO-ZwqscGiUsRUBuonYR-51" value="Records start and end time, and duration" style="ellipse;whiteSpace=wrap;html=1;" vertex="1" parent="1">
          <mxGeometry x="740" y="453" width="140" height="70" as="geometry" />
        </mxCell>
        <mxCell id="aO-ZwqscGiUsRUBuonYR-52" value="Submits report to TX" style="ellipse;whiteSpace=wrap;html=1;" vertex="1" parent="1">
          <mxGeometry x="740" y="590" width="140" height="70" as="geometry" />
        </mxCell>
        <mxCell id="aO-ZwqscGiUsRUBuonYR-56" value="Logs in to website" style="ellipse;whiteSpace=wrap;html=1;" vertex="1" parent="1">
          <mxGeometry x="515" y="310" width="140" height="70" as="geometry" />
        </mxCell>
        <mxCell id="aO-ZwqscGiUsRUBuonYR-61" value="" style="endArrow=none;html=1;rounded=0;entryX=0;entryY=0.5;entryDx=0;entryDy=0;" edge="1" parent="1" source="aO-ZwqscGiUsRUBuonYR-45" target="aO-ZwqscGiUsRUBuonYR-56">
          <mxGeometry width="50" height="50" relative="1" as="geometry">
            <mxPoint x="140" y="370" as="sourcePoint" />
            <mxPoint x="140" y="220" as="targetPoint" />
            <Array as="points" />
          </mxGeometry>
        </mxCell>
        <mxCell id="aO-ZwqscGiUsRUBuonYR-62" value="" style="endArrow=none;html=1;rounded=0;entryX=1;entryY=0.5;entryDx=0;entryDy=0;" edge="1" parent="1" source="aO-ZwqscGiUsRUBuonYR-42" target="aO-ZwqscGiUsRUBuonYR-56">
          <mxGeometry width="50" height="50" relative="1" as="geometry">
            <mxPoint x="1040" y="190" as="sourcePoint" />
            <mxPoint x="1090" y="140" as="targetPoint" />
            <Array as="points" />
          </mxGeometry>
        </mxCell>
        <mxCell id="aO-ZwqscGiUsRUBuonYR-63" value="" style="endArrow=none;html=1;rounded=0;entryX=0.5;entryY=1;entryDx=0;entryDy=0;" edge="1" parent="1" source="aO-ZwqscGiUsRUBuonYR-48" target="aO-ZwqscGiUsRUBuonYR-56">
          <mxGeometry width="50" height="50" relative="1" as="geometry">
            <mxPoint x="520" y="480" as="sourcePoint" />
            <mxPoint x="570" y="430" as="targetPoint" />
            <Array as="points">
              <mxPoint x="780" y="410" />
            </Array>
          </mxGeometry>
        </mxCell>
        <mxCell id="aO-ZwqscGiUsRUBuonYR-64" value="" style="endArrow=none;html=1;rounded=0;exitX=1;exitY=0.5;exitDx=0;exitDy=0;" edge="1" parent="1" source="aO-ZwqscGiUsRUBuonYR-51" target="aO-ZwqscGiUsRUBuonYR-48">
          <mxGeometry width="50" height="50" relative="1" as="geometry">
            <mxPoint x="960" y="590" as="sourcePoint" />
            <mxPoint x="1010" y="540" as="targetPoint" />
          </mxGeometry>
        </mxCell>
        <mxCell id="aO-ZwqscGiUsRUBuonYR-65" value="" style="endArrow=none;html=1;rounded=0;exitX=1;exitY=0.5;exitDx=0;exitDy=0;" edge="1" parent="1" source="aO-ZwqscGiUsRUBuonYR-52">
          <mxGeometry width="50" height="50" relative="1" as="geometry">
            <mxPoint x="950" y="620" as="sourcePoint" />
            <mxPoint x="1030" y="540" as="targetPoint" />
          </mxGeometry>
        </mxCell>
        <mxCell id="aO-ZwqscGiUsRUBuonYR-66" value="" style="endArrow=none;html=1;rounded=0;entryX=0;entryY=0.5;entryDx=0;entryDy=0;" edge="1" parent="1" source="aO-ZwqscGiUsRUBuonYR-45" target="aO-ZwqscGiUsRUBuonYR-46">
          <mxGeometry width="50" height="50" relative="1" as="geometry">
            <mxPoint x="160" y="430" as="sourcePoint" />
            <mxPoint x="210" y="380" as="targetPoint" />
          </mxGeometry>
        </mxCell>
        <mxCell id="aO-ZwqscGiUsRUBuonYR-67" value="" style="endArrow=none;html=1;rounded=0;exitX=1;exitY=0.5;exitDx=0;exitDy=0;" edge="1" parent="1" source="aO-ZwqscGiUsRUBuonYR-49" target="aO-ZwqscGiUsRUBuonYR-42">
          <mxGeometry width="50" height="50" relative="1" as="geometry">
            <mxPoint x="990" y="310" as="sourcePoint" />
            <mxPoint x="1040" y="260" as="targetPoint" />
          </mxGeometry>
        </mxCell>
        <mxCell id="aO-ZwqscGiUsRUBuonYR-68" value="" style="endArrow=none;html=1;rounded=0;exitX=1;exitY=0;exitDx=0;exitDy=0;" edge="1" parent="1" source="aO-ZwqscGiUsRUBuonYR-50" target="aO-ZwqscGiUsRUBuonYR-42">
          <mxGeometry width="50" height="50" relative="1" as="geometry">
            <mxPoint x="970" y="330" as="sourcePoint" />
            <mxPoint x="1020" y="280" as="targetPoint" />
          </mxGeometry>
        </mxCell>
        <mxCell id="aO-ZwqscGiUsRUBuonYR-69" value="" style="endArrow=none;html=1;rounded=0;entryX=1;entryY=1;entryDx=0;entryDy=0;exitX=0;exitY=0.3333333333333333;exitDx=0;exitDy=0;exitPerimeter=0;" edge="1" parent="1" source="aO-ZwqscGiUsRUBuonYR-48" target="aO-ZwqscGiUsRUBuonYR-50">
          <mxGeometry width="50" height="50" relative="1" as="geometry">
            <mxPoint x="980" y="480" as="sourcePoint" />
            <mxPoint x="1030" y="430" as="targetPoint" />
          </mxGeometry>
        </mxCell>
        <mxCell id="aO-ZwqscGiUsRUBuonYR-70" value="includes" style="html=1;verticalAlign=bottom;endArrow=open;dashed=1;endSize=8;curved=0;rounded=0;entryX=0;entryY=1;entryDx=0;entryDy=0;" edge="1" parent="1" source="aO-ZwqscGiUsRUBuonYR-46" target="aO-ZwqscGiUsRUBuonYR-56">
          <mxGeometry relative="1" as="geometry">
            <mxPoint x="490" y="280" as="sourcePoint" />
            <mxPoint x="410" y="280" as="targetPoint" />
          </mxGeometry>
        </mxCell>
        <mxCell id="aO-ZwqscGiUsRUBuonYR-71" value="includes" style="html=1;verticalAlign=bottom;endArrow=open;dashed=1;endSize=8;curved=0;rounded=0;entryX=1;entryY=0;entryDx=0;entryDy=0;" edge="1" parent="1" source="aO-ZwqscGiUsRUBuonYR-49" target="aO-ZwqscGiUsRUBuonYR-56">
          <mxGeometry x="0.0013" relative="1" as="geometry">
            <mxPoint x="417" y="322" as="sourcePoint" />
            <mxPoint x="546" y="250" as="targetPoint" />
            <mxPoint as="offset" />
          </mxGeometry>
        </mxCell>
        <mxCell id="aO-ZwqscGiUsRUBuonYR-72" value="includes" style="html=1;verticalAlign=bottom;endArrow=open;dashed=1;endSize=8;curved=0;rounded=0;entryX=0.895;entryY=0.793;entryDx=0;entryDy=0;entryPerimeter=0;exitX=0;exitY=0.5;exitDx=0;exitDy=0;" edge="1" parent="1" source="aO-ZwqscGiUsRUBuonYR-50" target="aO-ZwqscGiUsRUBuonYR-56">
          <mxGeometry relative="1" as="geometry">
            <mxPoint x="750" y="236" as="sourcePoint" />
            <mxPoint x="660" y="238" as="targetPoint" />
          </mxGeometry>
        </mxCell>
        <mxCell id="aO-ZwqscGiUsRUBuonYR-73" value="User Authentication" style="ellipse;whiteSpace=wrap;html=1;" vertex="1" parent="1">
          <mxGeometry x="290" y="190" width="140" height="70" as="geometry" />
        </mxCell>
        <mxCell id="aO-ZwqscGiUsRUBuonYR-74" value="includes" style="html=1;verticalAlign=bottom;endArrow=open;dashed=1;endSize=8;curved=0;rounded=0;entryX=1;entryY=1;entryDx=0;entryDy=0;exitX=0;exitY=0;exitDx=0;exitDy=0;" edge="1" parent="1" source="aO-ZwqscGiUsRUBuonYR-56" target="aO-ZwqscGiUsRUBuonYR-73">
          <mxGeometry x="0.0013" relative="1" as="geometry">
            <mxPoint x="549" y="210" as="sourcePoint" />
            <mxPoint x="420" y="279" as="targetPoint" />
            <mxPoint as="offset" />
          </mxGeometry>
        </mxCell>
        <mxCell id="aO-ZwqscGiUsRUBuonYR-75" value="includes" style="html=1;verticalAlign=bottom;endArrow=open;dashed=1;endSize=8;curved=0;rounded=0;entryX=1;entryY=1;entryDx=0;entryDy=0;exitX=0;exitY=0;exitDx=0;exitDy=0;" edge="1" parent="1" source="aO-ZwqscGiUsRUBuonYR-51" target="aO-ZwqscGiUsRUBuonYR-56">
          <mxGeometry relative="1" as="geometry">
            <mxPoint x="750" y="365" as="sourcePoint" />
            <mxPoint x="650" y="376" as="targetPoint" />
          </mxGeometry>
        </mxCell>
        <mxCell id="aO-ZwqscGiUsRUBuonYR-76" value="includes" style="html=1;verticalAlign=bottom;endArrow=open;dashed=1;endSize=8;curved=0;rounded=0;entryX=0.729;entryY=0.936;entryDx=0;entryDy=0;exitX=0;exitY=0;exitDx=0;exitDy=0;entryPerimeter=0;" edge="1" parent="1" source="aO-ZwqscGiUsRUBuonYR-52" target="aO-ZwqscGiUsRUBuonYR-56">
          <mxGeometry relative="1" as="geometry">
            <mxPoint x="771" y="473" as="sourcePoint" />
            <mxPoint x="644" y="380" as="targetPoint" />
          </mxGeometry>
        </mxCell>
        <mxCell id="aO-ZwqscGiUsRUBuonYR-77" value="Use" style="endArrow=open;endSize=12;dashed=1;html=1;rounded=0;exitX=1;exitY=1;exitDx=0;exitDy=0;" edge="1" parent="1" source="aO-ZwqscGiUsRUBuonYR-46" target="aO-ZwqscGiUsRUBuonYR-47">
          <mxGeometry width="160" relative="1" as="geometry">
            <mxPoint x="430" y="480" as="sourcePoint" />
            <mxPoint x="590" y="480" as="targetPoint" />
          </mxGeometry>
        </mxCell>
        <mxCell id="aO-ZwqscGiUsRUBuonYR-78" value="Use" style="endArrow=open;endSize=12;dashed=1;html=1;rounded=0;exitX=0;exitY=0.5;exitDx=0;exitDy=0;" edge="1" parent="1" source="aO-ZwqscGiUsRUBuonYR-52" target="aO-ZwqscGiUsRUBuonYR-47">
          <mxGeometry width="160" relative="1" as="geometry">
            <mxPoint x="419" y="503" as="sourcePoint" />
            <mxPoint x="524" y="543" as="targetPoint" />
          </mxGeometry>
        </mxCell>
      </root>
    </mxGraphModel>
  </diagram>
</mxfile>
